<?xml version="1.0" standalone="no"?>
<!DOCTYPE svg PUBLIC "-//W3C//DTD SVG 20010904//EN"
 "http://www.w3.org/TR/2001/REC-SVG-20010904/DTD/svg10.dtd">
<svg version="1.0" xmlns="http://www.w3.org/2000/svg"
 width="260.000000pt" height="260.000000pt" viewBox="0 0 260.000000 260.000000"
 preserveAspectRatio="xMidYMid meet">
<metadata>
Created by potrace 1.11, written by Peter Selinger 2001-2013
</metadata>
<g transform="translate(0.000000,260.000000) scale(0.100000,-0.100000)"
fill="#000000" stroke="none">
<path d="M2 2153 l3 -448 38 -3 c30 -3 37 -7 33 -18 -4 -10 -1 -14 6 -12 7 3
15 16 19 31 6 22 4 27 -12 27 -10 0 -19 5 -19 10 0 6 -8 5 -20 -2 -17 -11 -22
-10 -30 2 -28 42 15 94 44 54 8 -10 18 -14 25 -9 8 4 21 -2 33 -15 17 -18 19
-26 10 -40 -8 -13 -7 -21 2 -31 10 -10 11 -23 4 -46 -8 -31 -10 -32 -56 -28
-26 2 -47 4 -47 5 0 1 -8 3 -18 5 -9 2 -17 -2 -17 -9 0 -6 15 -11 38 -11 37 0
37 0 37 -40 0 -34 4 -41 25 -46 16 -4 2 -7 -37 -8 l-63 -1 0 -59 c0 -48 3 -60
17 -64 17 -4 17 -5 1 -6 -15 -1 -18 -11 -18 -72 0 -68 1 -70 23 -64 22 6 22 6
2 -12 -25 -23 -29 -72 -6 -68 9 1 17 10 18 21 2 10 0 13 -3 7 -3 -7 -11 -13
-17 -13 -7 1 -1 10 12 20 13 11 20 20 16 20 -4 0 2 16 14 36 12 19 21 43 22
52 1 10 4 7 8 -8 8 -29 6 -29 201 -15 69 5 152 10 184 10 55 0 60 -2 66 -24 3
-13 14 -28 25 -32 17 -6 17 -8 3 -8 -10 -1 -18 -8 -18 -17 0 -9 -11 -25 -25
-36 -32 -25 -32 -40 -1 -32 13 3 27 1 31 -5 3 -6 11 -9 16 -6 5 4 9 -3 9 -13
0 -15 -5 -19 -20 -15 -14 4 -20 0 -20 -12 0 -11 5 -15 15 -11 8 3 15 1 15 -4
0 -6 -5 -10 -11 -10 -5 0 -8 -4 -5 -8 5 -9 0 -10 -59 -16 -16 -2 -34 -4 -40
-5 -5 -1 -2 -6 8 -12 14 -8 16 -14 6 -25 -15 -19 -49 -18 -49 1 0 8 -7 15 -15
15 -8 0 -15 5 -15 10 0 6 -5 10 -11 10 -6 0 -9 -7 -5 -15 4 -11 -1 -15 -18
-15 -12 0 -44 -6 -69 -14 -26 -8 -49 -10 -52 -5 -3 5 -15 3 -26 -4 -16 -10
-21 -9 -29 2 -7 12 -11 10 -21 -12 -16 -35 -42 -37 -33 -2 8 33 -4 97 -17 89
-6 -3 -3 11 6 33 9 21 19 44 23 52 4 11 -2 13 -34 8 -21 -4 -53 -7 -70 -7
l-32 0 -1 -105 c0 -64 3 -105 9 -105 6 0 10 -5 10 -11 0 -5 -4 -7 -10 -4 -19
12 -10 -14 12 -35 l22 -20 -22 -23 c-21 -22 -22 -32 -22 -199 0 -132 3 -178
13 -181 10 -4 10 -6 0 -6 -10 -1 -13 -55 -13 -236 l0 -235 1300 0 1300 0 0
1300 0 1300 -1117 -2 -1118 -3 -2 -75 c0 -41 -2 -100 -4 -131 -1 -30 1 -60 4
-66 4 -7 2 -15 -5 -20 -15 -9 -128 -7 -158 2 -20 6 -28 35 -10 35 5 0 3 19 -5
41 -8 23 -15 52 -15 64 0 17 -7 24 -30 29 -25 5 -30 10 -30 35 0 15 -3 43 -6
60 -6 30 -9 31 -55 31 l-49 0 2 -447z m868 347 c22 -13 4 -25 -40 -25 -42 0
-56 8 -45 24 8 13 65 14 85 1z m1570 -8 c0 -13 -12 -22 -22 -16 -10 6 -1 24
13 24 5 0 9 -4 9 -8z m-664 -187 c18 -13 16 -14 -23 -15 -57 0 -58 17 -2 29 3
0 14 -6 25 -14z m-722 -21 c28 -11 17 -24 -18 -24 -36 0 -56 14 -34 23 19 8
34 8 52 1z m320 -28 c-3 -8 -1 -23 5 -33 9 -16 10 -16 11 5 0 13 4 20 10 17 6
-3 10 -15 10 -26 0 -17 -6 -20 -45 -18 -44 3 -45 4 -45 36 0 30 3 33 30 33 21
0 28 -4 24 -14z m-1234 -6 c0 -5 -18 -10 -40 -10 -22 0 -40 5 -40 10 0 6 18
10 40 10 22 0 40 -4 40 -10z m2120 -40 c0 -5 -4 -10 -10 -10 -5 0 -10 5 -10
10 0 6 5 10 10 10 6 0 10 -4 10 -10z m-390 -50 c0 -5 -4 -10 -10 -10 -5 0 -10
5 -10 10 0 6 5 10 10 10 6 0 10 -4 10 -10z m405 -10 c-3 -5 -10 -10 -16 -10
-5 0 -9 5 -9 10 0 6 7 10 16 10 8 0 12 -4 9 -10z m-1065 -30 c0 -5 -13 -10
-30 -10 -16 0 -30 5 -30 10 0 6 14 10 30 10 17 0 30 -4 30 -10z m342 -25 c4
-5 8 -38 8 -72 0 -40 4 -63 13 -66 9 -3 8 -11 -5 -33 -24 -41 -48 -40 -80 3
-29 37 -34 71 -22 146 6 31 11 37 31 37 17 0 22 4 17 13 -9 13 26 -11 38 -28z
m801 -2 c-5 -11 -8 -12 -13 -2 -5 7 -6 19 -3 26 5 11 8 12 13 2 5 -7 6 -19 3
-26z m37 25 c0 -7 -5 -20 -10 -28 -8 -12 -10 -9 -10 13 0 15 5 27 10 27 6 0
10 -6 10 -12z m-343 -110 c-2 -13 -4 -5 -4 17 -1 22 1 32 4 23 2 -10 2 -28 0
-40z m308 21 c-22 -4 -47 -3 -55 3 -11 7 -10 8 7 5 13 -3 25 -2 28 3 2 4 17 5
32 2 26 -6 26 -6 -12 -13z m-1194 -1 c19 -6 50 -21 69 -34 19 -12 49 -25 67
-29 31 -6 48 -27 44 -55 -1 -9 13 -34 32 -55 54 -64 137 -229 152 -303 8 -37
19 -83 25 -102 6 -22 6 -38 0 -44 -6 -6 -10 -18 -10 -28 0 -11 -11 -29 -25
-42 -14 -13 -25 -28 -25 -35 0 -6 -5 -11 -11 -11 -7 0 -22 -11 -35 -25 -14
-15 -29 -22 -38 -19 -9 3 -16 2 -16 -4 0 -6 -10 -8 -22 -4 -14 3 -19 1 -14 -6
3 -6 2 -13 -4 -17 -5 -3 -10 -1 -10 4 0 6 -4 11 -10 11 -5 0 -9 -10 -7 -21 1
-12 -4 -23 -11 -25 -7 -1 -8 0 -2 3 5 2 10 9 10 14 0 12 -47 12 -55 -1 -6 -9
-83 -35 -96 -32 -4 1 -19 -10 -33 -23 -26 -24 -26 -24 -40 -4 -16 23 -18 20
-36 -34 l-12 -38 -36 23 c-42 26 -56 38 -59 56 -5 21 19 13 24 -9 4 -14 8 -17
13 -9 4 7 -1 21 -13 33 l-20 20 -19 -23 c-15 -19 -21 -21 -28 -11 -4 8 -13 11
-19 7 -7 -5 -9 -1 -5 8 4 9 1 16 -6 16 -15 0 -50 39 -49 54 0 6 3 6 6 -1 7
-18 23 -16 23 2 0 9 6 12 15 9 20 -8 20 -7 -15 79 -16 42 -30 82 -30 91 0 8
-16 63 -36 123 -45 137 -50 225 -16 294 46 93 149 170 262 195 72 16 81 16
121 2z m1116 6 c-3 -3 -12 -4 -19 -1 -8 3 -5 6 6 6 11 1 17 -2 13 -5z m-107
-81 c0 -20 -3 -24 -11 -16 -7 7 -9 19 -6 27 10 24 17 19 17 -11z m30 7 c0 -5
-4 -10 -10 -10 -5 0 -10 5 -10 10 0 6 5 10 10 10 6 0 10 -4 10 -10z m-575 -52
l7 -33 10 28 c14 39 31 29 42 -24 11 -51 14 -58 24 -42 5 7 13 9 21 4 18 -12
5 -32 -15 -24 -12 5 -15 1 -11 -13 22 -78 28 -127 19 -136 -11 -11 -37 31 -52
83 -7 22 -5 29 8 32 13 3 11 6 -8 14 -19 8 -27 7 -33 -3 -4 -8 -6 -18 -2 -23
7 -12 -31 -25 -45 -16 -5 3 -10 13 -10 21 0 8 -4 14 -8 14 -8 0 -32 43 -32 55
0 3 11 5 25 5 23 0 25 4 25 43 0 67 21 75 35 15z m795 27 c-7 -9 -15 -13 -17
-11 -7 7 7 26 19 26 6 0 6 -6 -2 -15z m-2126 -166 c8 -12 19 -19 24 -15 5 3
17 -3 27 -14 16 -17 16 -21 2 -35 -20 -19 -51 -20 -44 -1 4 10 -2 16 -21 18
-22 2 -28 9 -30 36 -4 38 18 44 42 11z m371 1 c8 -26 -1 -40 -26 -40 -14 0
-19 7 -19 30 0 23 5 30 19 30 11 0 22 -9 26 -20z m-157 -42 c0 -30 -4 -38 -19
-38 -14 0 -19 7 -19 25 0 16 -6 25 -15 25 -8 0 -15 7 -15 15 0 12 9 15 34 13
33 -2 35 -4 34 -40z m1419 -25 c-3 -10 -5 -2 -5 17 0 19 2 27 5 18 2 -10 2
-26 0 -35z m110 0 c-3 -10 -5 -2 -5 17 0 19 2 27 5 18 2 -10 2 -26 0 -35z
m-1597 -13 c0 -11 -7 -20 -15 -20 -15 0 -21 21 -8 33 12 13 23 7 23 -13z
m1997 -6 c-3 -3 -12 -4 -19 -1 -8 3 -5 6 6 6 11 1 17 -2 13 -5z m-67 -19 c0
-8 -4 -15 -10 -15 -5 0 -10 7 -10 15 0 8 5 15 10 15 6 0 10 -7 10 -15z m-733
-55 c23 -46 31 -133 15 -158 -5 -7 -21 -14 -37 -15 -26 -2 -29 2 -51 67 -29
86 -30 106 -3 135 29 31 50 23 76 -29z m-1322 29 c6 -3 31 -5 58 -4 44 1 59
-6 37 -20 -5 -3 -10 -2 -10 4 0 6 -8 7 -17 4 -15 -6 -15 -7 3 -14 29 -11 122
-10 129 1 4 6 12 7 18 3 6 -4 27 -9 46 -12 38 -7 58 -29 48 -55 -6 -16 -24
-17 -179 -14 l-173 3 -3 34 c-6 64 9 89 43 70z m-74 -26 c11 -29 3 -100 -13
-120 -17 -21 -38 -3 -38 32 0 18 -7 38 -15 45 -31 26 -11 70 32 70 16 0 27 -8
34 -27z m2084 -23 c9 -14 -6 -61 -18 -57 -18 6 -31 33 -24 51 7 18 32 22 42 6z
m-1610 -30 c0 -32 -30 -38 -45 -9 -10 17 -9 23 1 30 24 15 44 5 44 -21z m1650
10 c3 -5 1 -10 -4 -10 -6 0 -11 5 -11 10 0 6 2 10 4 10 3 0 8 -4 11 -10z m5
-30 c0 -5 -4 -10 -10 -10 -5 0 -10 5 -10 10 0 6 5 10 10 10 6 0 10 -4 10 -10z
m-140 -115 c0 -28 -16 -31 -45 -9 -17 13 -18 16 -5 24 28 18 50 12 50 -15z
m90 -30 c0 -8 -7 -15 -15 -15 -8 0 -15 7 -15 15 0 8 7 15 15 15 8 0 15 -7 15
-15z m-659 -138 c18 -56 32 -117 32 -135 -1 -45 -71 -179 -97 -186 -26 -7 -88
22 -79 38 3 6 21 30 40 53 19 24 33 48 32 55 -4 21 12 78 22 78 5 0 9 8 9 18
0 14 -2 15 -10 2 -7 -11 -10 -7 -10 18 0 17 5 32 11 32 7 0 9 10 5 26 -4 16
-3 23 3 20 6 -4 6 6 -1 26 -5 18 -12 47 -15 63 -8 59 24 -2 58 -108z m-1081
72 c0 -24 -4 -38 -10 -34 -5 3 -10 22 -10 41 0 19 5 34 10 34 6 0 10 -18 10
-41z m48 0 c-4 -27 -23 -36 -32 -14 -8 22 13 60 26 47 5 -5 8 -20 6 -33z
m1162 -9 c0 -30 0 -30 -42 -24 -24 4 -47 11 -53 16 -15 14 23 38 62 38 30 0
33 -3 33 -30z m210 -1 c0 -24 -4 -29 -24 -29 -13 0 -27 8 -31 18 -6 16 -7 16
-16 0 -8 -14 -23 -18 -64 -18 -54 0 -55 0 -55 30 l0 30 95 -2 95 -1 0 -28z
m170 -14 c0 -3 -13 -5 -30 -5 -23 0 -30 5 -30 19 0 27 22 32 43 10 9 -10 17
-21 17 -24z m-1350 25 c0 -5 -4 -10 -10 -10 -5 0 -10 5 -10 10 0 6 5 10 10 10
6 0 10 -4 10 -10z m1488 -73 c2 -10 -3 -17 -12 -17 -10 0 -16 9 -16 21 0 24
23 21 28 -4z m-1652 -38 c3 -6 1 -16 -5 -22 -16 -16 -14 -37 5 -37 23 0 8 -17
-20 -22 -14 -3 -34 3 -47 13 -23 17 -23 18 -5 25 12 5 21 3 24 -4 7 -23 20
-12 17 16 -4 39 14 58 31 31z m175 -29 c6 0 7 -4 4 -10 -3 -5 -14 -10 -25 -10
-16 0 -17 3 -7 25 8 17 13 20 15 10 2 -8 8 -15 13 -15z m-40 7 c-1 -12 -15 -9
-19 4 -3 6 1 10 8 8 6 -3 11 -8 11 -12z m-69 -16 c6 19 45 1 69 -32 17 -24 19
-33 9 -44 -9 -11 -16 -12 -25 -5 -7 6 -23 6 -43 1 -27 -8 -32 -7 -38 11 -6 19
-8 18 -20 -11 -16 -37 -38 -37 -42 0 -2 19 4 27 28 36 31 12 41 33 15 33 -21
0 -19 18 3 23 9 2 22 -3 28 -10 9 -10 13 -11 16 -2z m103 -113 c34 15 33 16
33 -11 0 -24 3 -23 -140 -53 -23 -5 -28 -3 -28 14 0 22 18 32 61 32 21 0 29 5
29 18 0 14 2 14 9 3 8 -12 14 -13 36 -3z m110 -8 c-3 -5 -10 -10 -16 -10 -5 0
-9 5 -9 10 0 6 7 10 16 10 8 0 12 -4 9 -10z m1572 -37 c-3 -10 -5 -2 -5 17 0
19 2 27 5 18 2 -10 2 -26 0 -35z m-93 28 c4 -5 0 -12 -6 -15 -7 -4 -3 -4 10
-2 19 4 22 0 22 -30 0 -29 -3 -33 -22 -30 -19 2 -24 10 -26 44 -3 39 9 55 22
33z m-2294 -33 c0 -32 -15 -52 -34 -45 -10 4 -16 1 -16 -8 0 -8 -4 -15 -9 -15
-11 0 -26 59 -17 67 3 4 6 -2 6 -13 1 -15 4 -14 16 9 18 34 54 37 54 5z m470
-35 c-1 -28 -3 -34 -10 -22 -5 8 -7 24 -5 35 5 25 4 24 10 24 3 0 5 -17 5 -37z
m65 22 c0 -5 -10 -11 -22 -13 -16 -2 -23 2 -23 13 0 11 7 15 23 13 12 -2 22
-7 22 -13z m5 -43 c3 -2 0 -7 -7 -9 -7 -2 -9 -11 -6 -19 3 -9 -1 -14 -12 -14
-9 0 -14 4 -10 9 3 5 1 12 -5 16 -5 3 -10 13 -10 21 0 11 6 13 23 8 12 -3 24
-9 27 -12z m1847 -4 c-3 -8 -6 -5 -6 6 -1 11 2 17 5 13 3 -3 4 -12 1 -19z
m-2316 -21 l-23 -22 17 28 c10 15 20 25 23 22 3 -3 -5 -16 -17 -28z m291 11
c10 0 20 -3 23 -9 4 -5 -10 -9 -30 -9 -31 0 -35 -3 -30 -19 4 -14 0 -20 -19
-23 -28 -6 -35 4 -28 39 4 23 27 34 52 25 8 -2 23 -4 32 -4z m305 -20 c-3 -8
-6 -5 -6 6 -1 11 2 17 5 13 3 -3 4 -12 1 -19z m-437 -8 c0 -11 -7 -20 -15 -20
-18 0 -19 12 -3 28 16 16 18 15 18 -8z m-240 -16 c0 -8 -4 -12 -10 -9 -5 3
-10 10 -10 16 0 5 5 9 10 9 6 0 10 -7 10 -16z m890 6 c0 -5 -4 -10 -10 -10 -5
0 -10 5 -10 10 0 6 5 10 10 10 6 0 10 -4 10 -10z m-500 -20 c-20 -13 -33 -13
-25 0 3 6 14 10 23 10 15 0 15 -2 2 -10z m287 -22 c-3 -8 -6 -5 -6 6 -1 11 2
17 5 13 3 -3 4 -12 1 -19z m-332 3 c-16 -14 -55 -23 -55 -13 0 12 17 20 45 21
11 1 15 -3 10 -8z m1205 -12 c0 -23 -46 -128 -69 -158 -77 -99 -150 -204 -159
-228 -6 -15 -45 -120 -86 -232 -41 -112 -78 -206 -81 -209 -9 -9 -25 20 -25
46 0 13 5 32 10 43 8 14 7 19 -1 19 -14 0 -3 524 13 588 9 35 8 46 -4 60 -18
20 -41 62 -34 62 2 0 11 -6 18 -13 7 -7 29 -20 48 -29 19 -9 45 -26 58 -38 12
-12 22 -16 22 -9 0 37 78 77 95 49 3 -5 16 -10 29 -10 12 0 27 -5 33 -11 8 -8
16 -8 30 0 16 11 15 11 -7 6 -21 -5 -22 -4 -7 5 9 6 15 15 12 21 -4 5 2 6 12
2 10 -3 15 -3 11 2 -11 11 33 43 59 43 13 0 23 -4 23 -9z m-1161 -3 c-2 -2
-28 -11 -56 -19 -57 -17 -75 -7 -20 11 32 10 84 16 76 8z m171 -38 c0 -5 -7
-8 -15 -8 -15 0 -20 21 -8 33 7 7 23 -11 23 -25z m130 3 c0 -6 -4 -13 -10 -16
-5 -3 -10 1 -10 9 0 9 5 16 10 16 6 0 10 -4 10 -9z m-50 -15 c0 -11 -19 -15
-25 -6 -3 5 1 10 9 10 9 0 16 -2 16 -4z m-310 -36 c0 -5 -12 -10 -26 -10 -14
0 -23 4 -19 10 3 6 15 10 26 10 10 0 19 -4 19 -10z m-353 -156 c-3 -3 -12 -4
-19 -1 -8 3 -5 6 6 6 11 1 17 -2 13 -5z m1 -76 c3 -13 -3 -18 -22 -18 -20 0
-26 5 -26 21 0 15 5 20 22 17 13 -2 24 -11 26 -20z m1812 -83 c-7 -8 -18 -15
-26 -15 -9 0 -5 8 9 23 23 23 37 17 17 -8z m-1542 -62 c-10 -2 -28 -2 -40 0
-13 2 -5 4 17 4 22 1 32 -1 23 -4z m-202 -315 c7 -24 -19 -50 -42 -41 -16 6
-19 23 -4 23 6 0 10 9 10 20 0 27 27 26 36 -2z"/>
<path d="M1332 2240 c0 -14 2 -19 5 -12 2 6 2 18 0 25 -3 6 -5 1 -5 -13z"/>
<path d="M1206 1784 c-50 -18 -106 -61 -106 -80 0 -9 7 -22 15 -30 8 -9 15
-28 15 -44 0 -25 5 -31 39 -40 47 -12 120 -3 159 20 24 15 29 24 27 49 -2 30
-27 65 -39 54 -3 -4 -6 -2 -6 4 0 8 -12 8 -40 1 -22 -6 -37 -14 -34 -19 3 -5
-3 -6 -12 -2 -11 4 -15 3 -10 -5 3 -6 2 -13 -3 -16 -5 -3 -11 2 -13 12 -7 26
40 69 85 77 42 8 48 20 15 29 -32 8 -48 7 -92 -10z m23 -148 c9 -10 8 -15 -4
-20 -10 -4 -15 1 -15 14 0 24 4 25 19 6z"/>
<path d="M895 1646 c-38 -17 -75 -52 -75 -71 0 -20 10 -19 34 4 23 21 35 24
81 22 29 -2 29 -2 11 -16 -11 -8 -16 -15 -10 -15 11 -1 -26 -30 -39 -30 -4 0
-5 6 -1 13 4 6 -6 0 -21 -15 -26 -24 -27 -30 -17 -53 9 -19 17 -25 31 -20 13
4 20 1 23 -10 3 -13 9 -12 47 7 48 24 89 77 68 90 -9 6 -9 10 1 17 15 9 14 58
-1 79 -12 16 -94 15 -132 -2z"/>
<path d="M1130 1481 c0 -5 -16 -12 -36 -15 -37 -8 -50 -25 -40 -53 6 -15 8
-15 16 -3 5 8 12 12 15 8 7 -7 -25 -69 -48 -93 -24 -24 -31 -62 -17 -93 l12
-27 15 23 c9 12 20 22 25 22 6 0 19 11 29 24 24 30 141 74 124 46 -8 -13 -9
-13 60 14 33 14 61 29 63 35 5 15 -36 51 -52 45 -8 -3 -13 -11 -10 -18 4 -9
-10 -15 -43 -19 -51 -6 -137 -40 -166 -65 -34 -30 -27 -4 9 34 21 22 37 42 36
46 -1 3 28 6 65 5 72 -2 96 15 48 33 -22 8 -25 13 -15 25 16 19 3 40 -16 24
-10 -8 -14 -8 -14 0 0 6 -13 11 -30 11 -16 0 -30 -4 -30 -9z"/>
<path d="M1440 1400 c0 -5 4 -10 9 -10 6 0 13 5 16 10 3 6 -1 10 -9 10 -9 0
-16 -4 -16 -10z"/>
<path d="M1162 1290 c-23 -11 -45 -19 -48 -19 -3 0 -9 -3 -12 -7 -4 -4 -2 -4
5 0 7 3 14 -2 18 -14 6 -20 48 -28 71 -12 9 5 19 74 11 71 -1 0 -21 -9 -45
-19z"/>
<path d="M907 1199 c4 -13 8 -18 11 -10 2 7 -1 18 -6 23 -8 8 -9 4 -5 -13z"/>
<path d="M1590 1632 c0 -4 10 -13 21 -21 19 -11 21 -11 15 4 -3 9 -6 19 -6 21
0 2 -7 4 -15 4 -8 0 -15 -3 -15 -8z"/>
<path d="M1631 1570 c0 -8 4 -24 9 -35 l9 -20 0 20 c0 11 -4 27 -9 35 -9 13
-10 13 -9 0z"/>
<path d="M1568 1548 c7 -7 12 -20 12 -30 0 -11 7 -18 20 -18 25 0 26 22 2 43
-22 20 -53 24 -34 5z"/>
<path d="M645 1110 c-3 -5 -1 -10 4 -10 6 0 11 5 11 10 0 6 -2 10 -4 10 -3 0
-8 -4 -11 -10z"/>
<path d="M1 1664 c0 -11 3 -14 6 -6 3 7 2 16 -1 19 -3 4 -6 -2 -5 -13z"/>
<path d="M10 1576 c0 -8 -3 -21 -6 -30 -4 -11 0 -16 14 -16 15 0 18 5 14 25
-5 28 -22 44 -22 21z"/>
<path d="M55 1190 c-3 -5 -1 -10 4 -10 6 0 11 5 11 10 0 6 -2 10 -4 10 -3 0
-8 -4 -11 -10z"/>
<path d="M280 1180 c0 -5 5 -10 11 -10 5 0 7 5 4 10 -3 6 -8 10 -11 10 -2 0
-4 -4 -4 -10z"/>
<path d="M498 1123 c7 -3 16 -2 19 1 4 3 -2 6 -13 5 -11 0 -14 -3 -6 -6z"/>
<path d="M332 1104 c-16 -18 -12 -36 10 -40 11 -1 15 6 14 27 -1 33 -5 35 -24
13z"/>
<path d="M403 1076 c-1 -29 -1 -29 6 -6 7 22 9 23 16 8 8 -21 25 -24 25 -5 0
8 -10 18 -23 24 -21 10 -23 8 -24 -21z"/>
<path d="M376 1081 c-4 -7 -5 -15 -2 -18 9 -9 19 4 14 18 -4 11 -6 11 -12 0z"/>
</g>
</svg>
